<?xml version="1.0" encoding="utf-8" ?>
<svg baseProfile="full" height="1024" version="1.1" width="1024" xmlns="http://www.w3.org/2000/svg" xmlns:ev="http://www.w3.org/2001/xml-events" xmlns:xlink="http://www.w3.org/1999/xlink"><defs /><polygon fill="black" points="290,127 290,128 292,130 292,131 293,132 293,133 295,135 295,136 297,138 297,139 299,141 299,142 302,145 302,146 304,148 304,149 306,151 306,152 308,154 308,155 310,157 310,158 313,161 313,162 315,164 315,165 317,167 317,168 319,170 319,171 321,173 321,174 324,177 324,178 326,180 326,181 328,183 328,184 331,187 331,188 333,190 333,191 335,193 335,194 337,196 337,197 339,199 339,200 342,203 342,204 344,206 344,207 346,209 346,210 348,212 348,213 351,216 351,217 353,219 353,220 355,222 355,223 357,225 357,226 359,228 359,229 362,232 362,233 364,235 364,236 366,238 366,239 368,241 368,242 371,245 371,246 373,248 373,249 375,251 375,252 377,254 377,255 379,257 379,258 382,261 382,262 384,264 384,265 386,267 386,268 389,271 389,272 391,274 391,275 393,277 393,278 395,280 395,281 397,283 397,284 400,287 400,288 402,290 402,291 404,293 404,294 406,296 406,297 408,299 408,300 411,303 411,304 413,306 413,307 415,309 415,310 417,312 417,313 420,316 420,317 422,319 422,320 424,322 424,323 426,325 426,326 429,329 429,330 431,332 431,333 433,335 433,336 435,338 435,339 438,342 438,343 440,345 440,346 442,348 442,349 444,351 444,352 446,354 446,355 449,358 449,359 451,361 451,362 453,364 453,365 455,367 455,369 453,371 277,371 276,372 276,874 277,875 277,876 278,877 279,877 280,878 281,878 282,879 290,879 291,878 292,878 301,869 301,868 308,861 308,860 317,851 317,850 325,842 325,841 334,832 334,831 342,823 342,822 350,814 350,813 359,804 359,803 366,796 366,795 375,786 375,785 383,777 383,776 391,768 391,767 399,759 399,758 408,749 408,748 416,740 416,739 424,731 424,730 433,721 433,720 441,712 441,711 449,703 449,702 458,693 458,692 466,684 466,683 475,674 475,673 482,666 482,665 491,656 491,655 499,647 499,646 508,637 508,636 515,629 515,628 524,619 524,618 532,610 532,609 540,601 540,600 548,592 548,591 556,583 556,582 564,574 564,573 571,566 571,565 580,556 580,555 588,547 588,546 597,537 597,536 604,529 604,528 614,518 614,517 615,516 617,516 618,515 621,515 622,514 625,514 626,513 629,513 630,512 632,512 633,511 635,511 636,510 638,510 639,509 641,509 642,508 644,508 645,507 647,507 648,506 649,506 650,505 652,505 653,504 654,504 655,503 657,503 658,502 659,502 660,501 661,501 662,500 663,500 664,499 665,499 666,498 667,498 668,497 669,497 670,496 671,496 672,495 673,495 674,494 675,494 677,492 678,492 679,491 680,491 682,489 683,489 684,488 685,488 687,486 688,486 690,484 691,484 693,482 694,482 697,479 698,479 702,475 703,475 708,470 709,470 728,451 728,450 733,445 733,444 736,441 736,440 739,437 739,436 742,433 742,432 744,430 744,429 746,427 746,426 747,425 747,424 749,422 749,421 750,420 750,419 751,418 751,417 753,415 753,414 754,413 754,412 755,411 755,410 756,409 756,408 757,407 757,406 758,405 758,404 759,403 759,401 760,400 760,399 761,398 761,397 762,396 762,394 763,393 763,391 764,390 764,389 765,388 765,386 766,385 766,383 767,382 767,380 768,379 768,376 769,375 769,372 770,371 770,368 771,367 771,364 772,363 772,359 773,358 773,353 774,352 774,345 775,344 775,333 776,332 776,314 775,313 775,301 774,300 774,294 773,293 773,288 772,287 772,283 771,282 771,278 770,277 770,274 769,273 769,270 768,269 768,267 767,266 767,264 766,263 766,260 765,259 765,258 764,257 764,255 763,254 763,252 762,251 762,250 761,249 761,247 760,246 760,245 759,244 759,243 758,242 758,241 757,240 757,238 756,237 756,236 755,235 755,234 754,233 754,232 753,231 753,230 751,228 751,227 750,226 750,225 749,224 749,223 747,221 747,220 746,219 746,218 744,216 744,215 742,213 742,212 740,210 740,209 737,206 737,205 734,202 734,201 730,197 730,196 720,186 720,185 718,183 717,183 707,173 706,173 702,169 701,169 697,165 696,165 694,163 693,163 691,161 690,161 688,159 687,159 685,157 684,157 682,155 681,155 680,154 679,154 678,153 677,153 675,151 674,151 673,150 672,150 671,149 670,149 669,148 668,148 667,147 666,147 665,146 664,146 663,145 662,145 661,144 659,144 658,143 657,143 656,142 655,142 654,141 652,141 651,140 649,140 648,139 647,139 646,138 644,138 643,137 641,137 640,136 637,136 636,135 634,135 633,134 630,134 629,133 626,133 625,132 622,132 621,131 617,131 616,130 611,130 610,129 604,129 603,128 592,128 591,127" stroke="none" /><polygon fill="white" points="335,430 336,429 497,429 499,431 499,432 501,434 501,435 503,437 503,438 506,441 506,442 508,444 508,445 510,447 510,448 512,450 512,451 515,454 515,455 517,457 517,458 519,460 519,461 521,463 521,464 524,467 524,468 526,470 526,471 528,473 528,474 530,476 530,477 533,480 533,481 535,483 535,484 537,486 537,487 539,489 539,490 542,493 542,494 544,496 544,497 546,499 546,500 548,502 548,503 549,504 549,506 541,514 541,515 533,523 533,524 526,531 526,532 518,540 518,541 510,549 510,550 502,558 502,559 494,567 494,568 487,575 487,576 478,585 478,586 471,593 471,594 464,601 464,602 456,610 456,611 448,619 448,620 441,627 441,628 432,637 432,638 425,645 425,646 417,654 417,655 409,663 409,664 402,671 402,672 394,680 394,681 386,689 386,690 379,697 379,698 371,706 371,707 363,715 363,716 355,724 355,725 348,732 348,733 338,743 338,744 336,746 335,745" stroke="none" /><polygon fill="white" points="399,185 400,184 597,184 598,185 604,185 605,186 609,186 610,187 614,187 615,188 617,188 618,189 621,189 622,190 624,190 625,191 627,191 628,192 630,192 631,193 632,193 633,194 635,194 636,195 637,195 638,196 639,196 640,197 641,197 642,198 643,198 644,199 645,199 646,200 647,200 648,201 649,201 650,202 651,202 653,204 654,204 655,205 656,205 658,207 659,207 661,209 662,209 666,213 667,213 671,217 672,217 687,232 687,233 691,237 691,238 694,241 694,242 696,244 696,245 698,247 698,248 700,250 700,251 701,252 701,253 702,254 702,255 703,256 703,257 704,258 704,259 705,260 705,261 706,262 706,263 707,264 707,265 708,266 708,267 709,268 709,270 710,271 710,272 711,273 711,275 712,276 712,278 713,279 713,281 714,282 714,284 715,285 715,288 716,289 716,293 717,294 717,298 718,299 718,305 719,306 719,336 718,337 718,344 717,345 717,349 716,350 716,354 715,355 715,358 714,359 714,361 713,362 713,364 712,365 712,367 711,368 711,370 710,371 710,372 709,373 709,375 708,376 708,377 707,378 707,379 706,380 706,382 705,383 705,384 704,385 704,386 702,388 702,389 701,390 701,391 700,392 700,393 698,395 698,396 696,398 696,399 694,401 694,402 692,404 692,405 687,410 687,411 670,428 669,428 665,432 664,432 661,435 660,435 658,437 657,437 655,439 654,439 652,441 651,441 649,443 648,443 647,444 646,444 645,445 644,445 643,446 642,446 641,447 640,447 639,448 638,448 637,449 636,449 635,450 633,450 632,451 631,451 630,452 628,452 627,453 626,453 625,454 623,454 622,455 619,455 618,456 616,456 615,457 612,457 611,458 606,458 605,459 591,459 587,455 587,454 585,452 585,451 583,449 583,448 581,446 581,445 578,442 578,441 576,439 576,438 574,436 574,435 571,432 571,431 569,429 569,428 567,426 567,425 564,422 564,421 562,419 562,418 560,416 560,415 557,412 557,411 555,409 555,408 553,406 553,405 551,403 551,402 548,399 548,398 546,396 546,395 544,393 544,392 542,390 542,389 539,386 539,385 537,383 537,382 535,380 535,379 532,376 532,375 530,373 530,372 528,370 528,369 526,367 526,366 523,363 523,362 521,360 521,359 519,357 519,356 516,353 516,352 514,350 514,349 512,347 512,346 509,343 509,342 507,340 507,339 505,337 505,336 503,334 503,333 500,330 500,329 498,327 498,326 495,323 495,322 493,320 493,319 491,317 491,316 489,314 489,313 486,310 486,309 484,307 484,306 482,304 482,303 480,301 480,300 477,297 477,296 475,294 475,293 473,291 473,290 470,287 470,286 468,284 468,283 466,281 466,280 464,278 464,277 461,274 461,273 459,271 459,270 457,268 457,267 454,264 454,263 452,261 452,260 450,258 450,257 448,255 448,254 445,251 445,250 443,248 443,247 441,245 441,244 438,241 438,240 436,238 436,237 434,235 434,234 431,231 431,230 429,228 429,227 427,225 427,224 424,221 424,220 422,218 422,217 420,215 420,214 417,211 417,210 415,208 415,207 413,205 413,204 410,201 410,200 408,198 408,197 406,195 406,194 404,192 404,191 401,188 401,187" stroke="none" /></svg>