<?xml version="1.0" encoding="utf-8"?>
<!-- Generator: Adobe Illustrator 27.0.0, SVG Export Plug-In . SVG Version: 6.00 Build 0)  -->
<svg version="1.1" id="Layer_1" xmlns="http://www.w3.org/2000/svg" xmlns:xlink="http://www.w3.org/1999/xlink" x="0px" y="0px"
	 viewBox="0 0 512 512" style="enable-background:new 0 0 512 512;" xml:space="preserve">
<style type="text/css">
	.st0{fill:#0D4BA0;}
</style>
<g id="XMLID_1_">
	<path id="XMLID_3_" class="st0" d="M26.51,212.64c0,22.3,11.22,37.31,37.45,50.36l36.75,17.96c10.38,5.05,19.64,10.8,19.64,25.25
		c0,14.73-11.92,25.11-29.18,25.11s-28.34-11.22-28.34-28.48l0.14-5.89h-0.56h-62v0.56C0,301.29,0,305.08,0,308.44
		c0,20.06,6.87,34.37,20.9,43.48c14.17,9.26,36.19,13.89,67.19,13.89c60.46,0,96.65-26.93,96.65-71.96
		c0-21.18-11.08-37.03-32.96-47.27l-38.01-17.53c-15.01-7.01-22.58-15.99-22.58-26.93c0-12.62,10.1-21.18,25.11-21.18
		c15.71,0,24.27,8.7,24.27,24.69l-0.14,3.65h0.56h61.16v-0.56c0.28-3.65,0.56-7.29,0.56-10.52c0-42.78-43.63-51.76-80.24-51.76
		C60.6,146.43,26.51,169.99,26.51,212.64"/>
	<path id="XMLID_4_" class="st0" d="M250.53,146.43c-24.97,0-45.45,3.93-60.88,11.22c12.34,9.68,18.8,23.57,18.8,40.4
		c0,3.51-0.28,7.15-0.56,10.94l-0.42,6.03H155c0.84,21.04,12.06,35.49,37.45,47.97l36.75,17.96c10.38,5.05,19.64,10.8,19.64,25.25
		c0,14.73-11.92,25.11-29.18,25.11s-28.34-11.22-28.34-28.48l0.14-5.89h-0.56h-0.42c-0.84,22.72-10.38,41.52-27.91,54.57
		c-1.96,1.54-4.07,2.95-6.31,4.21c14.17,6.73,33.95,9.96,60.18,9.96c60.46,0,96.65-26.93,96.65-71.96
		c0-21.18-11.08-37.03-32.96-47.27l-38.15-17.53c-15.01-7.01-22.58-15.99-22.58-26.93c0-12.62,10.1-21.18,25.11-21.18
		c15.57,0,24.27,8.7,24.27,24.69l-0.14,3.65h0.56h61.16v-0.56c0.28-3.65,0.56-7.29,0.56-10.52
		C330.77,155.4,287.14,146.43,250.53,146.43"/>
	<path id="XMLID_5_" class="st0" d="M400.34,359.64l71.12-0.42l33.53-121.76l4.21-16.55c1.96-7.29,2.81-14.31,2.81-22.72
		c0-31.98-21.18-51.9-55.41-51.9c-27.63,0-59.06,13.05-81.5,42.78c0-1.26,10.1-37.73,10.1-37.73h-69.86l-0.56,2.81v0.14
		c14.87,9.96,22.58,24.83,22.58,43.63c0,3.51-0.28,7.15-0.56,10.94l-0.56,6.73h-36.75c-2.24,8.14-5.05,18.24-8,29.32
		c18.24,11.36,27.91,28.05,27.91,48.68c0,24.41-9.82,44.47-28.34,58.35c-3.37,2.52-7.01,4.77-10.94,6.87h51.34l29.88-109.13
		c7.72-28.9,20.9-62,53.44-62c13.05,0,23.29,9.26,23.29,21.04c0,6.03-0.56,15.29-3.37,25.11l0.14-0.14l-0.7,2.1l-26.79,98.33
		l-3.93,14.45l-0.14,0.14v0.14l-0.7,2.38"/>
</g>
</svg>
