<svg width="61" height="53" viewBox="0 0 61 53" fill="none" xmlns="http://www.w3.org/2000/svg">
  <path d="M37.8349 22.2484L25.5502 28.1688C22.2179 29.7715 21.4113 34.1687 23.9766 36.7382C26.542 39.3077 30.9322 38.4998 32.5322 35.1621L38.4432 22.8577C38.6349 22.4604 38.2316 22.0564 37.8349 22.2484Z" fill="#FF5539"/>
  <path d="M60.4934 30.6456C60.4934 14.0632 47.0318 0.580022 30.476 0.580022C3.43387 0.540288 -9.69047 34.1157 9.84067 52.42L20.0889 42.5791C9.16627 33.023 15.8177 14.891 30.4826 14.7983C45.1475 14.891 51.7989 33.0297 40.8697 42.5791L51.1179 52.42C56.8768 46.9433 60.5 39.215 60.5 30.6456H60.4934Z" fill="#FF5539"/>
</svg>
