<svg width="208" height="30" viewBox="0 0 208 30" fill="none" xmlns="http://www.w3.org/2000/svg">
<path d="M108.188 0H114.215V11.871C115.648 10.2814 122.205 8.44261 125.356 11.91C126.586 13.2245 127.06 14.9256 127.06 17.4783V29.5426H121.033V18.2889C121.033 17.1678 120.835 16.3163 120.28 15.7753C118.713 14.2842 115.62 15.1729 114.215 16.4334V29.5426H108.188V0Z" fill="#515766"/>
<path d="M153.761 10.3632H159.708V11.9491L159.788 11.9881C162.69 9.49678 168.747 8.84606 171.246 12.5682C174.344 9.73103 180.287 8.7531 183.259 11.8728C184.448 13.1111 185.003 14.7341 185.003 17.4802V29.5445H178.976V18.4469C178.976 17.0935 178.777 16.3981 178.263 15.818C176.682 14.2136 173.783 15.2343 172.356 16.5134C172.396 16.7458 172.396 17.0544 172.396 17.3259V29.5464H166.368V18.4488C166.368 17.1344 166.21 16.4 165.656 15.8199C164.075 14.2303 161.23 15.2361 159.788 16.5152V29.5464H153.761V10.3632Z" fill="#515766"/>
<path d="M199.219 29.9684C184.513 30.2621 184.608 10.1233 198.307 9.93741C204.283 9.84631 208.553 14.4887 207.545 21.4998H194.263C195.542 26.7892 202.802 25.774 206.593 23.318V28.2672C204.729 29.3493 201.836 29.9684 199.219 29.9684ZM202.112 17.865C201.578 13.1798 194.911 13.3416 194.223 17.865H202.112Z" fill="#515766"/>
<path d="M140.411 30C134.734 30 130.118 25.4952 130.118 19.9603C130.684 6.64106 150.142 6.64477 150.706 19.9603C150.706 25.497 146.087 30 140.413 30H140.411ZM140.411 15.7939C138.057 15.7939 136.141 17.6624 136.141 19.9585C136.376 25.484 144.448 25.4822 144.682 19.9585C144.682 17.6624 142.767 15.7939 140.413 15.7939H140.411Z" fill="#515766"/>
<path d="M0 10.3687H3.25185V5.6501L9.23899 4.21852V10.3669H14.4732V15.2398H9.23899V22.0073C9.17608 25.5063 12.0715 25.4505 14.4732 24.5209V29.1615C13.482 29.6263 11.8561 29.974 10.192 29.974C5.51442 29.974 3.25375 27.3822 3.25375 22.6264V15.2398H0V10.3669V10.3687Z" fill="#FF5539"/>
<path d="M30.9231 28.0794L30.843 28.0404C28.0448 30.3774 22.2959 30.8738 19.7417 27.9251C18.4722 26.5326 17.9976 24.9467 17.9976 22.2788V10.3687H24.0229V21.312C24.0229 22.7045 24.2211 23.5542 24.7758 24.1342C25.3305 24.7143 26.2816 24.9467 27.1947 24.9467C28.5423 24.9467 29.8118 24.3666 30.843 23.6322V10.3687H36.8683V29.5482H30.9211V28.0794H30.9231Z" fill="#FF5539"/>
<path d="M40.4003 10.3687H46.3074V12.9214L46.3875 12.9605C47.9162 10.7945 50.6038 9.71059 53.3258 10.2925V15.8218C50.8154 15.2733 48.1563 15.8497 46.4275 17.8706V29.5482H40.4022V10.3687H40.4003Z" fill="#FF5539"/>
<path d="M56.8521 0.00557639H62.8773V11.3746L62.9574 11.4136C64.345 10.4078 66.0491 9.94484 67.9133 9.94484C72.8292 9.94484 77.0722 13.5405 77.0722 19.5736C77.2057 28.2356 68.1916 32.2162 60.9369 28.7376L56.854 29.7044V0.00557639H56.8521ZM66.011 25.1791C72.3965 25.3911 72.8902 14.8159 66.2893 14.8922C64.9016 14.8922 63.7122 15.357 62.8792 15.937V24.4447C63.6722 24.8705 64.8216 25.1791 66.011 25.1791Z" fill="#FF5539"/>
<path d="M94.3265 18.209L89.5059 20.4698C88.1983 21.0833 87.8819 22.764 88.8883 23.7457C89.8948 24.7273 91.6179 24.4187 92.2469 23.1433L94.5667 18.4414C94.641 18.2908 94.4828 18.1365 94.3284 18.209H94.3265Z" fill="#FF5539"/>
<path d="M103.219 21.4179C103.219 15.0818 97.9348 9.92997 91.4406 9.92997C80.8273 9.91509 75.677 22.7454 83.3415 29.7397L87.3615 25.9786C83.0746 22.3252 85.686 15.3979 91.4387 15.3607C97.1933 15.396 99.8028 22.3271 95.5159 25.9786L99.5359 29.7397C101.797 27.6463 103.217 24.6938 103.217 21.4198L103.219 21.4179Z" fill="#FF5539"/>
</svg>
